<svg xmlns="http://www.w3.org/2000/svg" width="86" height="35" viewBox="0 0 86 35">
  <g id="mishka-logo-mobile.svg_copy" data-name="mishka-logo-mobile.svg copy" transform="translate(0 0)">
    <g id="Group_14" data-name="Group 14">
      <path id="Path_66" data-name="Path 66" d="M4.2,26.275c-.014-3.469-.263-6.931-.358-10.4-.008-.34-.015-.68-.02-1.02.049.122.1.243.147.364a28.627,28.627,0,0,0,1.847,3.916,17.946,17.946,0,0,1,1.528,3.936.642.642,0,0,0-.2.594c-.033.151.058.246.213.306a2.28,2.28,0,0,0,2.123-.008,5.212,5.212,0,0,0,.7-.355c.291-.181.748-.571.616-.976l-.072-.235a20.244,20.244,0,0,0,.818-3.3,20.88,20.88,0,0,1,1.1-3.482c.043.519.088,1.043.13,1.564.175,2.146.029,4.266.008,6.416a9.831,9.831,0,0,0,.185,2.073,8.613,8.613,0,0,1,.236,1.586.652.652,0,0,0,.328,1.21,2.82,2.82,0,0,0,2.344-.624c1.014-.932.535-2.394.305-3.569-.387-1.971.077-4.177.017-6.183-.07-2.258-.432-4.5-.4-6.762.024-1.829.33-3.71-.3-5.466.04-.2.081-.4.119-.6.164-.878-2.767-.414-3.227.391-.291.236-.44.518-.316.805.032.071.057.146.084.219A65.158,65.158,0,0,1,9.929,14.6c-.341,1-.752,1.975-1.1,2.975A29.721,29.721,0,0,1,7.44,14.727C6.278,11.839,5.23,8.919,3.811,6.14,3.973,4.851,1.1,4.987.535,6.166a7.246,7.246,0,0,0-.371,4.388A37.935,37.935,0,0,1,.485,15.7c.038,3.344.3,6.682.353,10.03A.842.842,0,0,0,.76,26.884a2.513,2.513,0,0,0,.485.46C2.006,27.954,4.205,27.436,4.2,26.275Z"/>
      <path id="Path_67" data-name="Path 67" d="M22.483,7.921c-.088-.613-3.432.084-3.315.883a32.749,32.749,0,0,1,.136,5.347,32.617,32.617,0,0,0,.619,4.966c.226,1.73-.072,3.5.127,5.23.089.811.634,2.31.074,3.015-.357.447,1.243.285,1.315.275a3.284,3.284,0,0,0,1.948-.874c.555-.7.166-2.04.045-2.824a45.8,45.8,0,0,1-.163-5.281c-.061-1.674-.647-3.251-.654-4.942A40.542,40.542,0,0,0,22.483,7.921Z"/>
      <path id="Path_68" data-name="Path 68" d="M25.621,14.56c.915,2.512,4.671,1.326,6.582,1.47,3.254.239,2.284,4.6,2.325,6.635.022,1.084,1,2.885.179,3.793-.5.555-1.677.588-2.362.646s-1.863.261-2.323-.39c-.84-1.193.077-3.2-.1-4.564-.1-.779-3.44-.08-3.315.883.291,2.209-1.185,5.169,2.032,5.55a15.35,15.35,0,0,0,6.348-.782,7.479,7.479,0,0,0,2.744-1.508c.876-.793.588-1.977.354-2.984-.573-2.456.619-5.284-.993-7.447-1.746-2.343-4.985-.656-7.246-1.3-1.168-.33-1.181-1.909-1.176-2.857a29.738,29.738,0,0,0-.233-3.489,2.86,2.86,0,0,1,.631-2.445,3.8,3.8,0,0,1,.684-.286,6.994,6.994,0,0,1,.9-.076c1.31-.056,3.9.195,3.4,2.09-.227.849,3.043.363,3.282-.536,1.025-3.87-6.167-3.128-8.2-2.59-1.872.494-3.935,1.553-4.042,3.7-.052,1.026.23,2,.275,3.019A11.175,11.175,0,0,0,25.621,14.56Z"/>
      <path id="Path_69" data-name="Path 69" d="M40.147,16.428c-.053,1.8-.21,3.589-.221,5.388a18.148,18.148,0,0,0,.279,2.747,6.976,6.976,0,0,1,.153,2.793c-.2.645,3.014.242,3.27-.586.46-1.5-.188-3.4-.342-4.913a25.664,25.664,0,0,1,.072-4.416A25.432,25.432,0,0,1,48.5,17.43c.076,1.162.165,2.32.273,3.481.088.974.153,1.946.165,2.925a8.821,8.821,0,0,1-.185,2.91c-.654,1.73,2.668,1.588,3.151.308a13.058,13.058,0,0,0,.325-5.189c-.131-2.057-.406-4.1-.472-6.16-.1-3.18-.583-6.323-.6-9.507-.006-1.659-3.353-1.1-3.347.288.012,3.037.419,6.031.575,9.06.005.06.007.121.009.184-1.647-.016-3.3.15-4.952.207.172-3.9-.517-7.763-.367-11.661.02-.492-3.279-.077-3.315.882C39.618,8.926,40.26,12.663,40.147,16.428Z"/>
      <path id="Path_70" data-name="Path 70" d="M54.294,21.794c-.255.259-.161.414.045.506,0,1.473-.05,2.947-.179,4.42-.4.629.391.959.916.959h.082c.625,0,2.22-.293,2.3-1.147a52.735,52.735,0,0,0,.2-5.294,26.5,26.5,0,0,0,3.432-4.743,24.91,24.91,0,0,1,1.684,3.857c.728,2.308,1.947,4.427,2.65,6.743.461,1.521,3.772.62,3.314-.884-.705-2.317-1.866-4.458-2.651-6.743a61.887,61.887,0,0,0-3.061-6.562c.849-1.639,1.707-3.28,2.482-4.955.7-1.523,1.225-3.213,2.606-4.285.485-.376.465-.754-.217-.8a3.744,3.744,0,0,0-2.345.624,9.045,9.045,0,0,0-2.708,3.591c-.788,1.723-1.6,3.418-2.467,5.112-.06.123-.126.248-.188.373a.965.965,0,0,0-.542,1.064c-.669,1.315-1.353,2.624-2.115,3.88-.253-4.656-.806-9.308-.974-13.969-.036-1.067-3.36-.4-3.312.885.2,5.779,1.029,11.545,1.088,17.323C54.321,21.765,54.306,21.781,54.294,21.794Z"/>
      <path id="Path_71" data-name="Path 71" d="M85.98,15.569c-.178-.7-1.162-.715-1.923-.647-.01-.282-.017-.566-.03-.848-.107-2.239-.139-4.526-.331-6.758-.176-2.067-1.341-2.808-3.361-2.731A20.565,20.565,0,0,0,74,5.765a5.886,5.886,0,0,0-3.859,4.779c-.466,2.537.2,5.233.315,7.781.131,2.948.056,5.9.054,8.85,0,.484,3.313.027,3.313-.883,0-2.336.037-4.67,0-7.006-.011-.688-.043-1.373-.085-2.055,1.161-.5,3.122.01,4.275.118a12.924,12.924,0,0,0,2.745-.244c.017,1.944.09,3.9.171,5.845.042,1,.4,2.971-.3,3.794-.37.436,1.255.289,1.316.281A3.358,3.358,0,0,0,83.9,26.15c.8-.942.386-3.19.34-4.313-.065-1.609-.086-3.219-.122-4.829C85.092,16.879,86.162,16.283,85.98,15.569Zm-6.694-.162a25.008,25.008,0,0,0-5.679.036c-.086-1.05-.183-2.1-.256-3.151-.134-1.96.1-4.7,1.937-5.89a6.166,6.166,0,0,1,1.995-.368,3.126,3.126,0,0,1,2.394.16c1.023.675.773,3.077.77,4.1,0,1.688.178,3.367.263,5.053A11.991,11.991,0,0,1,79.286,15.407Z"/>
      <path id="Path_72" data-name="Path 72" d="M18.791,4.1a.574.574,0,0,0,.12.5c0,.039,0,.075,0,.114l.012.282a.764.764,0,0,0,.365.446,1.84,1.84,0,0,0,1.113.2,2.7,2.7,0,0,0,1.251-.44c.072-.061.144-.122.217-.182.441-.283.822-.7.615-1.146A6.447,6.447,0,0,1,22.135,1c.005-.807-.816-1.05-1.508-.988-.612.053-1.836.489-1.84,1.278a13.2,13.2,0,0,0,.091,2.521A1.672,1.672,0,0,0,18.791,4.1Z"/>
      <path id="Path_73" data-name="Path 73" d="M80.663,33.257a19.945,19.945,0,0,0-4.874-.786c-1.61-.17-3.261-.41-4.907-.562-1.644.053-3.325.028-4.995.129l-4.9.268c-6.518.289-13.061.253-19.611.107-6.547-.123-13.108-.476-19.724-.453-3.3.008-6.6.1-9.909.25-1.64.283-3.255.5-4.928.912a31.1,31.1,0,0,1-4.817,1.047,23.431,23.431,0,0,0,4.986.3c1.587.01,3.259.143,4.9.231,3.243-.171,6.518-.246,9.78-.257,6.518-.025,13.077.329,19.66.451,6.578.146,13.177.185,19.776-.111l4.931-.268c1.611-.071,3.214-.127,4.853-.067,1.635-.149,3.268-.331,4.942-.532a22.852,22.852,0,0,1,4.877-.508l.074,0,.006-.054a3.235,3.235,0,0,0-.04-.48C80.7,33,80.694,33.14,80.663,33.257Z"/>
    </g>
  </g>
</svg>
