<svg xmlns="http://www.w3.org/2000/svg" width="15" height="28" viewBox="0 0 15 28">
  <g id="fb.svg" transform="translate(0)">
    <g id="facebook">
      <g id="Group_2" data-name="Group 2">
        <path id="Path_4" data-name="Path 4" d="M11.692,5.246a6.665,6.665,0,0,0,2.688-.3A8.278,8.278,0,0,0,15,1.923c-.191-.015-.063-.34-.208-.4-.03-.2-.28-.2-.31-.4-.278-.167-.458-.426-.724-.6C13.03.351,12.314.176,11.588.01A13.555,13.555,0,0,0,9,.111,6.619,6.619,0,0,0,3.729,2.526c-.023.08,0,.2-.105.2-.575,1.6-.124,3.658-.2,5.638.1.44.107.968.2,1.408a18.7,18.7,0,0,1-3.411.5c-.318.327-.178,1.1-.207,1.711A15.207,15.207,0,0,0,.421,13.6a3.5,3.5,0,0,0,.827.5c.065.03.071.083.1.1.506.271,1.455.008,2.273.1-.136,2,.257,3.955,0,5.737.007.33.3.386.209.806a8.416,8.416,0,0,0,.208,2.718,2.671,2.671,0,0,0-.416,1.812c.122.015.114.159.105.3-.075.475.645.177.516.706.162.461-.428.185-.413.5v.905a5.92,5.92,0,0,0,2.274.2c.91-.423,2.193-.483,2.792-1.208a1.276,1.276,0,0,0,1.241-.2c-.017-.319.275-.336.206-.705,0-.332-.173-.5-.1-.906V22.056c-.207-2.316-.048-4.988-.31-7.248a9.083,9.083,0,0,0,2.585-.4,4.919,4.919,0,0,0,.517-1.913,1.578,1.578,0,0,0,.207-1.006c.19-.215.068-.737.1-1.107-.14-.6-.168-1.313-.827-1.409-.886-.237-2.048.6-3,.3.049-1.147-.294-2.367,0-3.422C10.268,5.671,10.97,5.449,11.692,5.246ZM7.865,10.078a3.8,3.8,0,0,0,.415.7c.079.023.2,0,.206.1a10.26,10.26,0,0,0,3.1-.3A7.593,7.593,0,0,1,11.07,13.1a10.016,10.016,0,0,1-1.963.2c-.277.167-.373.51-.622.705-.049.445.141.5,0,.805-.2.137-.055.617-.206.8v1.511c.085.284-.146.26-.1.5V21.15c-.085.284.147.261.1.5v3.019c.063.274-.132.8.1.906-.07.368-.413-.021-.826.1A7.619,7.619,0,0,1,6,26.084a2.871,2.871,0,0,0,.312-1.108c.049-.385-.367-.314-.517-.5.193-.651.564-1.128.724-1.811.2-.52.716-1.311.31-1.812-.523-.106-.522.3-.828.4-.022.078,0,.2-.1.2-.024.078,0,.2-.1.2.01.121-.151.063,0,0,.023-.079,0-.2.1-.2.023-.078,0-.2.1-.2v-.3a5.789,5.789,0,0,0,.828-2.013,4.818,4.818,0,0,0,.413-1.008,1.306,1.306,0,0,0,.105-1.207.958.958,0,0,0-.932.7c-.321-.191.161-.437.105-.7.137-.233.169-.572.309-.805.2-.417.566-1.316,0-1.611a.659.659,0,0,0-.724.5,1.464,1.464,0,0,0-.517.705c-.374-.071-.143-.734-.207-1.108-.067-.524.122-.908,0-1.207-.561-.807-2.031-.107-3.205-.3a2.271,2.271,0,0,1-.1-1.207c1.048-.089,2.485.2,3.205-.2.025-.08,0-.2.1-.2.094-.73-.272-1.01-.516-1.409a17.391,17.391,0,0,0,.1-3.019c.234-.142.329-.419.516-.6.112-.965.674-1.491.723-2.517-.274,0-.609-.056-.621.2-.3-.115-.383.483-.516.2-.112-.545.247-.632.31-1.007.6-.422,1.215-.828,1.861-1.207,1.746-.246,4.661-.454,6.1.2.051.622-.288.863-.208,1.511h-1.55a30.568,30.568,0,0,0-3,1.007c-.241.068-.277.334-.516.4a6.1,6.1,0,0,1-.312,1.006C7.683,7.5,7.9,8.673,7.865,10.078Z" fill="#231f20"/>
      </g>
    </g>
  </g>
</svg>
