<svg xmlns="http://www.w3.org/2000/svg" width="40" height="62" viewBox="0 0 40 62">
  <g id="interior.svg" transform="translate(-244 -701)" opacity="0.502">
    <g id="interior.svg-2" data-name="interior.svg" transform="translate(244 701)">
      <g id="Group_12" data-name="Group 12">
        <path id="Path_56" data-name="Path 56" d="M15.1,37.708a7.927,7.927,0,0,0,.027,3.615c.491,2.617,1.677,6,2.345,9.606H22.5c.692-3.617,1.938-7,2.458-9.619A7.614,7.614,0,0,0,25,37.717a4.071,4.071,0,0,0-2.01-2.288H17.025A4.036,4.036,0,0,0,15.1,37.708Z"/>
        <path id="Path_57" data-name="Path 57" d="M26.862,57.571H13.138a2.223,2.223,0,0,0-2.286,2.215V62h18.3V59.787A2.224,2.224,0,0,0,26.862,57.571Z"/>
        <path id="Path_58" data-name="Path 58" d="M33.956,2.214H22.288a2.289,2.289,0,0,0-4.575,0H6.04L0,27.563a5.142,5.142,0,0,1,2.618-.986,4.484,4.484,0,0,1,2.908,1.367,3.13,3.13,0,0,0,1.439.842,3.116,3.116,0,0,0,1.443-.83,4.508,4.508,0,0,1,2.9-1.349,4.531,4.531,0,0,1,2.9,1.344,3.152,3.152,0,0,0,1.443.834,1.245,1.245,0,0,0,.576-.213,7.51,7.51,0,0,0,.867-.622,5.794,5.794,0,0,1,1.979-1.211A3.207,3.207,0,0,1,20,26.607a4.529,4.529,0,0,1,2.9,1.345,3.154,3.154,0,0,0,1.444.834,3.167,3.167,0,0,0,1.437-.844,4.521,4.521,0,0,1,2.909-1.357,4.489,4.489,0,0,1,2.9,1.362,7.7,7.7,0,0,0,.867.627,1.227,1.227,0,0,0,.571.213,3.1,3.1,0,0,0,1.435-.848,4.486,4.486,0,0,1,2.912-1.375,5.115,5.115,0,0,1,2.618.99Z"/>
        <path id="Path_59" data-name="Path 59" d="M23.395,53.143H16.569a1.108,1.108,0,1,0,0,2.214h6.862a1.108,1.108,0,1,0,0-2.214Z"/>
        <path id="Path_60" data-name="Path 60" d="M20,28.82a1.268,1.268,0,0,0-.576.213c-.156.092-.368.258-.567.406v3.706h2.286V29.439A2.63,2.63,0,0,0,20,28.82Z"/>
      </g>
    </g>
    <path id="Color_Overlay" data-name="Color Overlay" d="M270.861,763h-16.01v-2.213a2.223,2.223,0,0,1,2.287-2.216h13.723a2.224,2.224,0,0,1,2.288,2.216V763Zm-10.292-6.643a1.108,1.108,0,1,1,0-2.215h6.862a1.108,1.108,0,1,1,0,2.215Zm.9-4.428c-.669-3.605-1.854-6.989-2.345-9.607a7.918,7.918,0,0,1-.026-3.614,4.028,4.028,0,0,1,1.929-2.279h5.964A4.07,4.07,0,0,1,269,738.717a7.608,7.608,0,0,1-.04,3.593c-.518,2.615-1.765,6-2.457,9.619Zm1.39-17.784v-3.706c.2-.149.41-.314.567-.407a1.271,1.271,0,0,1,.576-.212,2.623,2.623,0,0,1,1.143.619v3.706Zm13.607-4.572a7.585,7.585,0,0,1-.867-.626,3.787,3.787,0,0,0-5.812-.005,1.656,1.656,0,0,1-2.882.01,4.527,4.527,0,0,0-2.9-1.345,3.2,3.2,0,0,0-.924.134,5.807,5.807,0,0,0-1.979,1.211,7.345,7.345,0,0,1-.868.622,1.242,1.242,0,0,1-.576.213,3.159,3.159,0,0,1-1.443-.835,3.8,3.8,0,0,0-5.8.005,3.144,3.144,0,0,1-1.44.83h0a3.134,3.134,0,0,1-1.439-.842,4.486,4.486,0,0,0-2.908-1.367,5.141,5.141,0,0,0-2.618.986l6.04-25.349h11.673a2.289,2.289,0,0,1,4.575,0h11.668L284,728.554a5.115,5.115,0,0,0-2.617-.991,4.488,4.488,0,0,0-2.912,1.375,3.105,3.105,0,0,1-1.435.849A1.225,1.225,0,0,1,276.464,729.573Z" fill="#149080"/>
  </g>
</svg>
