<svg xmlns="http://www.w3.org/2000/svg" width="60" height="60" viewBox="0 0 60 60">
  <path id="Color_Overlay" data-name="Color Overlay" d="M265.557,838.709,293,822.669v23.29L265.557,862ZM233,845.96v-23.5L260.439,838.5V862Zm2.646-27.937,5.953-3.473v2.435c0,1.829,3.46,3.311,7.727,3.311s7.726-1.482,7.726-3.311V812.9h-.022c-.258,1.725-3.605,3.092-7.7,3.092-4.268,0-7.727-1.484-7.727-3.306s3.46-3.309,7.727-3.309c.356,0,.706.015,1.053.032l4.808-2.81v3.007a1.815,1.815,0,0,0,.565,1.244,3.988,3.988,0,0,1,.732.589,12.58,12.58,0,0,0,6.433,1.476c4.268,0,7.722-1.482,7.722-3.309V806.5l4.975,2.906c.327-.02.663-.03,1-.03,4.272,0,7.729,1.478,7.729,3.309s-3.457,3.306-7.729,3.306c-4.1,0-7.443-1.367-7.7-3.092h-.024v4.084c0,1.829,3.461,3.311,7.727,3.311s7.73-1.482,7.73-3.311v-2.469l6.183,3.611-27.351,15.985Zm19.6,6.726c0,1.827,3.46,3.307,7.729,3.307s7.727-1.48,7.727-3.307v-4.086h-.022c-.262,1.726-3.6,3.1-7.7,3.1s-7.446-1.37-7.706-3.1h-.023Zm-.06-19.44c0-1.827,3.46-3.308,7.729-3.308s7.723,1.481,7.723,3.308-3.454,3.306-7.723,3.306S255.187,807.135,255.187,805.308Z" transform="translate(-233 -802)" fill="#149080"/>
</svg>
