<svg xmlns="http://www.w3.org/2000/svg" width="23" height="20" viewBox="0 0 23 20">
  <g id="twitter" transform="translate(0)">
    <g id="Group_1" data-name="Group 1">
      <path id="Path_3" data-name="Path 3" d="M22.96,4.05c-.221-.363-.89-.275-1.377-.368H20.494A8.168,8.168,0,0,1,21,2.726a5.422,5.422,0,0,0,.218-1.249c.126-.166.172-.414.29-.588.1-.143.237-.473.072-.661-.05-.218-.289-.246-.581-.22a.5.5,0,0,0-.217.147c-.439.429-.762,1.006-1.234,1.4-.009.008-.061,0-.073,0-.084,0-.032.046-.073.073-.143.1-.252.151-.361.221a2.929,2.929,0,0,1-.871.514,5.919,5.919,0,0,0-1.813-.367,6.241,6.241,0,0,0-2.974.735,7.194,7.194,0,0,0-2.1,1.616c-.047.318-.334.395-.362.735,0,.045-.011.087-.071.073.042.239-.05.342-.072.515,0,.132.195.427,0,.515a6.959,6.959,0,0,1-2.1-.956,9.914,9.914,0,0,1-2.03-1.1A5.941,5.941,0,0,1,4.9,2.8c-.2-.309-.531-.492-.654-.883-.37-.164-.171-.905-.724-.882-.309-.043-.338.2-.436.367-.069.225-.353.23-.363.515,0,.045-.01.087-.072.074a17.8,17.8,0,0,0-.507,3.232,3.027,3.027,0,0,0,.58,1.029,1.085,1.085,0,0,0-.87.515,3.72,3.72,0,0,0,.725,2.278A2.931,2.931,0,0,0,3.156,10c.017.227.2.286.29.441.019.105.12.124.146.221-.039.1.282.179.071.219-.4.129-.995.069-1.233.368a1.936,1.936,0,0,0,0,1.1c.033.235.276.26.29.515a17.881,17.881,0,0,0,1.6,1.1,14.828,14.828,0,0,0,1.813.367,1.421,1.421,0,0,1-.581.735,18.5,18.5,0,0,1-2.684.734,15.328,15.328,0,0,1-1.522.221c-.326.126-.836.074-1.089.221-.119.067-.1.094-.217.218a.711.711,0,0,0,.434.883c0,.251.214.274.364.368a.78.78,0,0,0,.435.367,10.371,10.371,0,0,0,1.887,1.1c.813.18,1.614.373,2.467.514.877.115,1.861.123,2.757.22h.942A9.528,9.528,0,0,0,11.136,20c.093-.1.315-.072.508-.073a9.08,9.08,0,0,0,1.6-.734c.563-.24.969-.637,1.524-.883a9.876,9.876,0,0,0,2.466-2.352,1.658,1.658,0,0,0,.436-.734c.259-.156.377-.45.581-.661a9.868,9.868,0,0,0,1.015-1.4c.312-.492.564-1.044.87-1.542-.009-.4.3-.481.29-.883.19-.223.173-.656.363-.882a1.382,1.382,0,0,1,.073-.588,12.2,12.2,0,0,0-.291-3.38,5.548,5.548,0,0,0,1.6-.588A1.019,1.019,0,0,0,22.96,4.05ZM19.624,8.091a4.708,4.708,0,0,1-1.016,1.984c.057.376-.1.534-.071.882a4.262,4.262,0,0,0-.364,1.028c-.2.264-.325.6-.507.883-.358.542-.761,1.041-1.161,1.543-.37.555-.893.957-1.306,1.47-.411.489-.922.877-1.377,1.323a4.844,4.844,0,0,0-1.234.661,4.848,4.848,0,0,0-.653.293c-.172.145-.489.144-.654.295A23.178,23.178,0,0,1,7.8,18.6a25.626,25.626,0,0,1-2.975-.368A11.535,11.535,0,0,1,2.576,17.2c.15-.241.622-.154.944-.22.029-.165.385,0,.435-.149.252.06.279-.108.508-.072a9.218,9.218,0,0,0,1.669-.588c.275-.136.4-.429.652-.587A.737.737,0,0,1,7,15.146c.046-.273.2-.437.145-.808.11-.208.294-.34.291-.661-.073-.147-.126-.313-.291-.368-.025-.194-.369-.067-.435-.22a1.328,1.328,0,0,1-.581-.074c-.151-.043-.477.091-.507-.072a3.516,3.516,0,0,1-1.814-.734c.421-.26,1.01-.35,1.3-.737.505-.075,1.036-.128,1.089-.66,0-.71-.755-.656-1.3-.808A12.016,12.016,0,0,1,3.156,7.5c.233-.156.553-.223.725-.44.444.058.529-.249.653-.516.018-.483-.326-.6-.581-.807A3.475,3.475,0,0,1,3.3,5.005a18.665,18.665,0,0,1,.072-2.352c.062-.013.07.029.072.073.222.438.547.769.8,1.176a8.729,8.729,0,0,0,1.524,1.1c.443.409,1.085.616,1.523,1.028a16,16,0,0,1,1.668.883c.655.192,1.034.666,1.959.587.195-.1.386-.2.581-.295.253-.452-.058-1.069.145-1.616a4.28,4.28,0,0,1,1.233-1.469,7.782,7.782,0,0,0,.8-.515,4.7,4.7,0,0,0,.944-.368,6.033,6.033,0,0,0,1.015-.147h1.233a6.911,6.911,0,0,0,.725.147,1.793,1.793,0,0,0,.652.368,4.459,4.459,0,0,1,1.379,3.013A10.332,10.332,0,0,0,19.624,8.091Zm.29-5.585c-.126.338-.226.7-.581.809-.017-.105-.119-.124-.144-.22-.012-.208.2-.184.289-.295.161-.083.241-.246.436-.295C19.907,2.418,20.019,2.46,19.914,2.506ZM14.545,5.519a1.328,1.328,0,0,0,.508.368.694.694,0,0,0,.582.368c.046-.15.338-.049.362-.221.17-.023.163-.227.29-.294a2.366,2.366,0,0,0-.362-1.323A.916.916,0,0,0,14.545,5.519Z" fill="#231f20"/>
    </g>
  </g>
</svg>
